<?xml version="1.0" encoding="UTF-8"?>
<svg id="_レイヤー_1" data-name="レイヤー 1" xmlns="http://www.w3.org/2000/svg" version="1.1" viewBox="0 0 595.28 226.77">
  <defs>
    <style>
      .cls-1 {
        fill: #252525;
      }

      .cls-1, .cls-2, .cls-3, .cls-4, .cls-5 {
        stroke-width: 0px;
      }

      .cls-2 {
        fill: #d57f2d;
      }

      .cls-3 {
        fill: #2688ab;
      }

      .cls-4 {
        fill: #221714;
      }

      .cls-5 {
        fill: #fff;
      }

      .cls-6 {
        display: none;
      }
    </style>
  </defs>
  <g>
    <path class="cls-3" d="M158.86,94.88l4.04-3.31c1.34,0,2.86.16,4.55.47l3.03,2.84,2.02-1.89,2.02.95-2.53,1.89,4.55,4.26,4.04-3.79c4.04,1.89,7.58,4.26,10.61,7.1,3.03,3.16,5.56,6.63,7.58,10.41l-4.04,3.78,4.55,3.79,2.53-1.89.51,1.89-1.52,1.42,2.53,2.84c.67,1.58,1.01,3.16,1.01,4.73l-3.54,3.31,4.04,3.79-.51,3.31-3.54,3.79,2.53,2.36-.5,2.37-3.54-3.31-4.55,3.78,4.55,4.26,3.03-2.84c-.34,1.89-1.18,3.79-2.53,5.68l-.51-.47-4.55,4.26,1.52,1.42-1.01,1.42-1.52-1.42-4.55,3.79,2.02,2.37-1.01.95-2.53-1.89-4.04,3.79,1.52,1.89-1.52.95-1.52-1.42-4.04,4.26c-1.35.63-3.03,1.26-5.05,1.89l2.02-1.89-4.55-4.26-4.04,4.26,2.53,2.84-2.02.47-2.02-1.89-2.53,2.37h-3.03l4.04-3.79-4.55-4.26-4.04,4.26,4.04,3.79h-3.03l-2.53-2.37-2.02,1.89-2.02-.47,2.53-2.84-4.04-4.26-4.55,4.26,2.02,1.89c-2.02-.31-3.71-.95-5.05-1.89h.51l-4.55-4.26-1.52,1.42-1.52-.95,1.52-1.89-4.04-3.79-2.53,1.89-1.52-.95,2.53-2.37-4.55-3.79-1.52,1.42-1.52-1.42,1.52-1.42-4.04-4.26-.5.47c-1.01-1.89-1.86-3.79-2.53-5.68l3.03,2.84,4.04-4.26-4.04-3.78-3.54,3.31-.51-2.37,2.53-2.36-3.54-3.79-.51-3.31,4.04-3.79-3.54-3.31c0-1.57.17-3.15.5-4.73l3.03-2.84-1.52-1.42.51-1.89,2.53,1.89,4.04-3.79-3.54-3.78c2.02-4.42,4.55-7.88,7.58-10.41,2.69-2.84,6.23-5.21,10.61-7.1l4.04,3.79,4.55-4.26-2.53-1.89,2.02-.95,2.02,1.89,3.03-2.84c1.68-.31,3.2-.47,4.55-.47l3.54,3.31ZM114.39,128.48l4.55,3.79,4.04-3.79-4.04-4.26-4.55,4.26ZM114.39,138.89l4.55,4.26,4.04-4.26-4.04-3.79-4.55,3.79ZM120.45,122.8l4.04,4.26,4.55-4.26-4.55-3.79-4.04,3.79ZM120.45,133.68l4.04,4.26,4.55-4.26-4.55-4.26-4.04,4.26ZM120.45,144.57l4.04,3.78,4.55-3.78-4.55-4.26-4.04,4.26ZM120.45,154.98l4.04,4.26,4.55-4.26-4.55-3.79-4.04,3.79ZM120.96,112.39l3.54,3.79,4.55-3.79-4.55-4.26-3.54,4.26ZM126.01,106.71l4.55,4.26,4.04-4.26-4.04-3.78-4.55,3.78ZM126.01,117.59l4.55,3.79,4.04-3.79-4.04-4.26-4.55,4.26ZM126.01,128.48l4.55,3.79,4.04-3.79-4.04-4.26-4.55,4.26ZM126.01,138.89l4.55,4.26,4.04-4.26-4.04-3.79-4.55,3.79ZM126.01,149.77l4.55,4.26,4.04-4.26-4.04-3.78-4.55,3.78ZM126.01,160.65l4.55,3.79,4.04-3.79-4.04-4.26-4.55,4.26ZM131.57,101.51l4.55,3.78,4.55-3.78-4.55-3.79-4.55,3.79ZM158.86,108.13l-2.02,2.37c-1.69.32-3.37.79-5.05,1.42l-4.04-3.79-4.55,4.26,3.54,2.84-1.52,1.42-3.54-3.31-4.04,4.26,4.04,3.79,2.02-1.42c-.68,1.26-1.35,2.68-2.02,4.26l-4.04,4.26,2.53,2.37v2.37l-4.04-3.79-4.55,4.26,4.55,4.26,3.54-3.79v2.84l-2.02,1.89,2.53,2.84c.33,1.26.67,2.68,1.01,4.26l-3.54,3.78,4.04,4.26,2.02-1.89,1.01,1.89-1.52.95,4.55,4.26,1.01-.95,1.52.95-1.01,1.42,4.04,3.79,3.54-3.31c1.68.32,3.2.32,4.55,0l3.54,3.31,4.04-3.79-1.01-1.42,1.52-.95,1.01.95,4.55-4.26-1.52-.95,1.01-1.89,2.02,1.89,4.04-4.26-3.54-3.31c.33-1.26.67-2.84,1.01-4.73l2.53-2.84-2.02-1.89-.51-2.84,4.04,3.79,4.04-4.26-4.04-4.26-4.04,3.79v-2.37l2.53-2.37-4.04-4.26c-.68-1.57-1.35-2.99-2.02-4.26l2.02,1.42,4.04-3.79-4.04-4.26-3.54,3.31-1.52-1.42,3.54-2.84-4.55-4.26-4.04,3.79c-1.69-.63-3.37-1.1-5.05-1.42l-2.53-2.37ZM131.57,112.39l4.55,3.79,4.55-3.79-4.55-4.26-4.55,4.26ZM131.57,122.8l4.55,4.26,4.55-4.26-4.55-3.79-4.55,3.79ZM131.57,144.57l4.55,3.78,4.55-3.78-4.55-4.26-4.55,4.26ZM131.57,154.98l4.55,4.26,4.55-4.26-4.55-3.79-4.55,3.79ZM131.57,165.86l4.55,4.26,4.55-4.26-4.55-3.79-4.55,3.79ZM137.63,106.71l4.04,4.26,4.55-4.26-4.55-3.78-4.04,3.78ZM137.63,160.65l4.04,3.79,4.55-3.79-4.55-4.26-4.04,4.26ZM137.63,171.07l4.04,4.26,4.55-4.26-4.55-3.79-4.04,3.79ZM143.19,101.51l4.55,3.78,4.04-3.78-4.04-4.26-4.55,4.26ZM143.19,165.86l4.55,4.26,4.04-4.26-4.04-3.79-4.55,3.79ZM149.26,95.83l4.04,4.26,4.55-4.26-4.55-3.79-4.04,3.79ZM149.26,106.71l4.04,4.26,4.55-4.26-4.55-3.78-4.04,3.78ZM149.26,171.07l4.04,4.26,4.55-4.26-4.55-3.79-4.04,3.79ZM154.81,101.51l4.04,3.78,4.55-3.78-4.55-4.26-4.04,4.26ZM154.81,165.86l4.04,4.26,4.55-4.26-4.55-3.79-4.04,3.79ZM160.37,95.83l4.55,4.26,4.04-4.26-4.04-3.79-4.55,3.79ZM160.37,106.71l4.55,4.26,4.04-4.26-4.04-3.78-4.55,3.78ZM160.37,171.07l4.55,4.26,4.04-4.26-4.04-3.79-4.55,3.79ZM166.44,101.51l4.04,3.78,4.55-3.78-4.55-4.26-4.04,4.26ZM166.44,165.86l4.04,4.26,4.55-4.26-4.55-3.79-4.04,3.79ZM171.99,106.71l4.55,4.26,4.04-4.26-4.04-3.78-4.55,3.78ZM171.99,160.65l4.55,3.79,4.04-3.79-4.04-4.26-4.55,4.26ZM171.99,171.07l4.55,4.26,4.04-4.26-4.04-3.79-4.55,3.79ZM177.55,101.51l4.55,3.78,4.04-3.78-4.55-3.79-4.04,3.79ZM177.55,112.39l4.55,3.79,4.04-3.79-4.04-4.26-4.55,4.26ZM177.55,122.8l4.55,4.26,4.04-4.26-4.04-3.79-4.55,3.79ZM177.55,154.98l4.55,4.26,4.04-4.26-4.04-3.79-4.55,3.79ZM177.55,165.86l4.55,4.26,4.04-4.26-4.04-3.79-4.55,3.79ZM178.06,144.57l4.04,3.78,4.04-3.78-4.04-4.26-4.04,4.26ZM183.62,106.71l4.04,4.26,4.55-4.26-4.55-3.78-4.04,3.78ZM183.62,117.59l4.04,3.79,4.55-3.79-4.55-4.26-4.04,4.26ZM183.62,128.48l4.04,3.79,4.55-3.79-4.55-4.26-4.04,4.26ZM183.62,138.89l4.04,4.26,4.55-4.26-4.55-3.79-4.04,3.79ZM183.62,149.77l4.04,4.26,4.55-4.26-4.55-3.78-4.04,3.78ZM183.62,160.65l4.04,3.79,4.55-3.79-4.55-4.26-4.04,4.26ZM189.17,112.39l4.55,3.79,3.54-3.79-3.54-4.26-4.55,4.26ZM189.17,122.8l4.55,4.26,4.04-4.26-4.04-3.79-4.55,3.79ZM189.17,133.68l4.55,4.26,4.04-4.26-4.04-4.26-4.55,4.26ZM189.17,144.57l4.55,3.78,4.04-3.78-4.04-4.26-4.55,4.26ZM189.17,154.98l4.55,4.26,4.04-4.26-4.04-3.79-4.55,3.79ZM194.73,128.48l4.55,3.79,4.04-3.79-4.04-4.26-4.55,4.26ZM194.73,138.89l4.55,4.26,4.04-4.26-4.04-3.79-4.55,3.79Z"/>
    <path class="cls-2" d="M197.04,114.9l4.02-3.3c1.34,0,2.84.16,4.53.47l3.02,2.83,2.01-1.88,2.01.94-2.51,1.88,4.53,4.24,4.02-3.77c4.02,1.88,7.54,4.24,10.56,7.06,3.02,3.14,5.53,6.59,7.54,10.36l-4.02,3.77,4.53,3.77,2.51-1.88.5,1.88-1.51,1.41,2.51,2.83c.67,1.57,1.01,3.14,1.01,4.71l-3.52,3.3,4.02,3.77-.5,3.3-3.52,3.77,2.51,2.35-.5,2.36-3.52-3.3-4.53,3.77,4.53,4.24,3.02-2.83c-.34,1.88-1.18,3.77-2.51,5.65l-.5-.47-4.53,4.24,1.51,1.41-1.01,1.41-1.51-1.41-4.53,3.77,2.01,2.36-1.01.94-2.51-1.88-4.02,3.77,1.51,1.88-1.51.94-1.51-1.41-4.02,4.24c-1.34.63-3.02,1.26-5.03,1.88l2.01-1.88-4.53-4.24-4.02,4.24,2.51,2.83-2.01.47-2.01-1.88-2.51,2.36h-3.02l4.02-3.77-4.53-4.24-4.02,4.24,4.02,3.77h-3.02l-2.51-2.36-2.01,1.88-2.01-.47,2.51-2.83-4.02-4.24-4.53,4.24,2.01,1.88c-2.01-.31-3.69-.94-5.03-1.88h.5l-4.53-4.24-1.51,1.41-1.51-.94,1.51-1.88-4.02-3.77-2.51,1.88-1.51-.94,2.51-2.36-4.53-3.77-1.51,1.41-1.51-1.41,1.51-1.41-4.02-4.24-.5.47c-1.01-1.88-1.85-3.77-2.51-5.65l3.02,2.83,4.02-4.24-4.02-3.77-3.52,3.3-.5-2.36,2.51-2.35-3.52-3.77-.5-3.3,4.02-3.77-3.52-3.3c0-1.57.16-3.13.5-4.71l3.02-2.83-1.51-1.41.5-1.88,2.51,1.88,4.02-3.77-3.52-3.77c2.01-4.39,4.53-7.84,7.54-10.36,2.68-2.83,6.2-5.18,10.56-7.06l4.02,3.77,4.53-4.24-2.51-1.88,2.01-.94,2.01,1.88,3.02-2.83c1.67-.31,3.18-.47,4.53-.47l3.52,3.3ZM152.79,148.33l4.53,3.77,4.02-3.77-4.02-4.24-4.53,4.24ZM152.79,158.7l4.53,4.24,4.02-4.24-4.02-3.77-4.53,3.77ZM158.82,142.68l4.02,4.24,4.53-4.24-4.53-3.77-4.02,3.77ZM158.82,153.52l4.02,4.24,4.53-4.24-4.53-4.24-4.02,4.24ZM158.82,164.35l4.02,3.77,4.53-3.77-4.53-4.24-4.02,4.24ZM158.82,174.71l4.02,4.24,4.53-4.24-4.53-3.77-4.02,3.77ZM159.33,132.32l3.52,3.77,4.53-3.77-4.53-4.24-3.52,4.24ZM164.35,126.67l4.53,4.24,4.02-4.24-4.02-3.77-4.53,3.77ZM164.35,137.5l4.53,3.77,4.02-3.77-4.02-4.24-4.53,4.24ZM164.35,148.33l4.53,3.77,4.02-3.77-4.02-4.24-4.53,4.24ZM164.35,158.7l4.53,4.24,4.02-4.24-4.02-3.77-4.53,3.77ZM164.35,169.53l4.53,4.24,4.02-4.24-4.02-3.77-4.53,3.77ZM164.35,180.36l4.53,3.77,4.02-3.77-4.02-4.24-4.53,4.24ZM169.89,121.49l4.53,3.77,4.53-3.77-4.53-3.77-4.53,3.77ZM197.04,128.08l-2.01,2.36c-1.68.32-3.36.79-5.03,1.41l-4.02-3.77-4.53,4.24,3.52,2.83-1.51,1.41-3.52-3.3-4.02,4.24,4.02,3.77,2.01-1.41c-.68,1.26-1.34,2.67-2.01,4.24l-4.02,4.24,2.51,2.36v2.36l-4.02-3.77-4.53,4.24,4.53,4.24,3.52-3.77v2.83l-2.01,1.88,2.51,2.83c.33,1.26.67,2.67,1.01,4.24l-3.52,3.77,4.02,4.24,2.01-1.88,1.01,1.88-1.51.94,4.53,4.24,1.01-.94,1.51.94-1.01,1.41,4.02,3.77,3.52-3.3c1.67.32,3.18.32,4.53,0l3.52,3.3,4.02-3.77-1.01-1.41,1.51-.94,1.01.94,4.53-4.24-1.51-.94,1.01-1.88,2.01,1.88,4.02-4.24-3.52-3.3c.33-1.25.67-2.83,1.01-4.71l2.51-2.83-2.01-1.88-.5-2.83,4.02,3.77,4.02-4.24-4.02-4.24-4.02,3.77v-2.36l2.51-2.36-4.02-4.24c-.68-1.57-1.34-2.98-2.01-4.24l2.01,1.41,4.02-3.77-4.02-4.24-3.52,3.3-1.51-1.41,3.52-2.83-4.53-4.24-4.02,3.77c-1.68-.62-3.36-1.1-5.03-1.41l-2.51-2.36ZM169.89,132.32l4.53,3.77,4.53-3.77-4.53-4.24-4.53,4.24ZM169.89,142.68l4.53,4.24,4.53-4.24-4.53-3.77-4.53,3.77ZM169.89,164.35l4.53,3.77,4.53-3.77-4.53-4.24-4.53,4.24ZM169.89,174.71l4.53,4.24,4.53-4.24-4.53-3.77-4.53,3.77ZM169.89,185.54l4.53,4.24,4.53-4.24-4.53-3.77-4.53,3.77ZM175.92,126.67l4.02,4.24,4.53-4.24-4.53-3.77-4.02,3.77ZM175.92,180.36l4.02,3.77,4.53-3.77-4.53-4.24-4.02,4.24ZM175.92,190.72l4.02,4.24,4.53-4.24-4.53-3.77-4.02,3.77ZM181.45,121.49l4.53,3.77,4.02-3.77-4.02-4.24-4.53,4.24ZM181.45,185.54l4.53,4.24,4.02-4.24-4.02-3.77-4.53,3.77ZM187.49,115.84l4.02,4.24,4.53-4.24-4.53-3.77-4.02,3.77ZM187.49,126.67l4.02,4.24,4.53-4.24-4.53-3.77-4.02,3.77ZM187.49,190.72l4.02,4.24,4.53-4.24-4.53-3.77-4.02,3.77ZM193.02,121.49l4.02,3.77,4.53-3.77-4.53-4.24-4.02,4.24ZM193.02,185.54l4.02,4.24,4.53-4.24-4.53-3.77-4.02,3.77ZM198.55,115.84l4.53,4.24,4.02-4.24-4.02-3.77-4.53,3.77ZM198.55,126.67l4.53,4.24,4.02-4.24-4.02-3.77-4.53,3.77ZM198.55,190.72l4.53,4.24,4.02-4.24-4.02-3.77-4.53,3.77ZM204.59,121.49l4.02,3.77,4.53-3.77-4.53-4.24-4.02,4.24ZM204.59,185.54l4.02,4.24,4.53-4.24-4.53-3.77-4.02,3.77ZM210.12,126.67l4.53,4.24,4.02-4.24-4.02-3.77-4.53,3.77ZM210.12,180.36l4.53,3.77,4.02-3.77-4.02-4.24-4.53,4.24ZM210.12,190.72l4.53,4.24,4.02-4.24-4.02-3.77-4.53,3.77ZM215.65,121.49l4.53,3.77,4.02-3.77-4.53-3.77-4.02,3.77ZM215.65,132.32l4.53,3.77,4.02-3.77-4.02-4.24-4.53,4.24ZM215.65,142.68l4.53,4.24,4.02-4.24-4.02-3.77-4.53,3.77ZM215.65,174.71l4.53,4.24,4.02-4.24-4.02-3.77-4.53,3.77ZM215.65,185.54l4.53,4.24,4.02-4.24-4.02-3.77-4.53,3.77ZM216.15,164.35l4.02,3.77,4.02-3.77-4.02-4.24-4.02,4.24ZM221.68,126.67l4.02,4.24,4.53-4.24-4.53-3.77-4.02,3.77ZM221.68,137.5l4.02,3.77,4.53-3.77-4.53-4.24-4.02,4.24ZM221.68,148.33l4.02,3.77,4.53-3.77-4.53-4.24-4.02,4.24ZM221.68,158.7l4.02,4.24,4.53-4.24-4.53-3.77-4.02,3.77ZM221.68,169.53l4.02,4.24,4.53-4.24-4.53-3.77-4.02,3.77ZM221.68,180.36l4.02,3.77,4.53-3.77-4.53-4.24-4.02,4.24ZM227.21,132.32l4.53,3.77,3.52-3.77-3.52-4.24-4.53,4.24ZM227.21,142.68l4.53,4.24,4.02-4.24-4.02-3.77-4.53,3.77ZM227.21,153.52l4.53,4.24,4.02-4.24-4.02-4.24-4.53,4.24ZM227.21,164.35l4.53,3.77,4.02-3.77-4.02-4.24-4.53,4.24ZM227.21,174.71l4.53,4.24,4.02-4.24-4.02-3.77-4.53,3.77ZM232.75,148.33l4.53,3.77,4.02-3.77-4.02-4.24-4.53,4.24ZM232.75,158.7l4.53,4.24,4.02-4.24-4.02-3.77-4.53,3.77Z"/>
    <path class="cls-1" d="M14.32,91.98h80.8v18.75h-57.27v24.54h57.27v18.53h-57.27v44.73H14.32v-106.55Z"/>
    <path class="cls-1" d="M376.84,91.53h24.06v63.56c0,7.11.92,12.3,2.76,15.57,2.86,5.8,9.09,8.7,18.69,8.7s15.75-2.9,18.61-8.7c1.84-3.27,2.76-8.46,2.76-15.57v-63.56h24.06v63.61c0,11-1.87,19.57-5.6,25.7-6.96,11.23-20.23,16.85-39.83,16.85s-32.9-5.62-39.91-16.85c-3.74-6.13-5.6-14.7-5.6-25.7v-63.61Z"/>
    <path class="cls-1" d="M508.65,164.11c.73,4.59,2.17,8.02,4.32,10.29,3.93,4.13,10.65,6.2,20.17,6.2,5.7,0,10.33-.54,13.89-1.63,6.75-2.09,10.13-5.97,10.13-11.65,0-3.32-1.65-5.88-4.96-7.7-3.31-1.77-8.55-3.34-15.73-4.7l-12.27-2.38c-12.06-2.36-20.34-4.93-24.85-7.7-7.64-4.63-11.45-11.88-11.45-21.73,0-8.99,3.73-16.46,11.21-22.41s18.45-8.92,32.92-8.92c12.09,0,22.4,2.81,30.93,8.41,8.54,5.61,13.01,13.75,13.43,24.42h-22.76c-.42-6.04-3.47-10.33-9.14-12.87-3.79-1.68-8.49-2.52-14.11-2.52-6.25,0-11.24,1.09-14.97,3.27-3.73,2.18-5.6,5.22-5.6,9.13,0,3.59,1.84,6.27,5.52,8.04,2.36,1.18,7.38,2.57,15.06,4.16l19.89,4.16c8.71,1.82,15.25,4.25,19.6,7.29,6.75,4.72,10.13,11.56,10.13,20.5s-4,16.79-12.01,22.85c-8,6.06-19.31,9.1-33.92,9.1s-26.65-2.98-35.2-8.96c-8.55-5.97-12.82-14.18-12.82-24.62h22.6Z"/>
    <g>
      <path class="cls-1" d="M273.52,104.19c9.13-8.34,20.74-12.5,34.83-12.5,18.86,0,32.65,5.59,41.37,16.76,4.82,6.27,7.4,12.57,7.76,18.89h-23.68c-1.51-4.85-3.44-8.52-5.8-10.99-4.22-4.4-10.47-6.6-18.75-6.6s-15.09,3.1-19.96,9.31c-4.87,6.21-7.31,14.99-7.31,26.35s2.57,19.87,7.71,25.52c5.14,5.66,11.67,8.48,19.59,8.48s14.31-2.43,18.57-7.28c2.36-2.61,4.31-6.53,5.87-11.75h23.52c-2.03,11.04-7.21,20.01-15.55,26.93-8.34,6.92-19.03,10.37-32.06,10.37-16.12,0-28.8-4.67-38.03-14.01-9.23-9.39-13.84-22.26-13.84-38.61,0-17.68,5.25-31.3,15.74-40.88Z"/>
      <path class="cls-4" d="M273.52,104.19c9.13-8.34,20.74-12.5,34.83-12.5,18.86,0,32.65,5.59,41.37,16.76,4.82,6.27,7.4,12.57,7.76,18.89h-23.68c-1.51-4.85-3.44-8.52-5.8-10.99-4.22-4.4-10.47-6.6-18.75-6.6s-15.09,3.1-19.96,9.31c-4.87,6.21-7.31,14.99-7.31,26.35s2.57,19.87,7.71,25.52c5.14,5.66,11.67,8.48,19.59,8.48s14.31-2.43,18.57-7.28c2.36-2.61,4.31-6.53,5.87-11.75h23.52c-2.03,11.04-7.21,20.01-15.55,26.93-8.34,6.92-19.03,10.37-32.06,10.37-16.12,0-28.8-4.67-38.03-14.01-9.23-9.39-13.84-22.26-13.84-38.61,0-17.68,5.25-31.3,15.74-40.88Z"/>
    </g>
    <path class="cls-1" d="M32.06,68.79c-5,0-8.95-1.11-11.73-3.3-2.23-1.75-3.5-4.02-3.87-6.88h4.79c.37,1.49.92,2.67,1.69,3.59,1.79,2.13,4.75,3.21,8.78,3.21,2.31,0,4.17-.25,5.67-.77,4.08-1.43,4.94-4.34,4.94-6.54,0-2.01-.93-3.65-2.68-4.73-1.41-.85-3.48-1.56-6.33-2.17l-4.47-.98c-5.17-1.14-7.44-2.2-8.43-2.89-2.29-1.57-3.4-4-3.4-7.45,0-3.19,1.14-5.77,3.49-7.88,2.37-2.13,6.01-3.21,10.8-3.21,3.99,0,7.43,1.05,10.21,3.11,2.21,1.64,3.52,3.86,3.99,6.76h-4.73c-.56-2.28-1.95-4.03-4.09-5.11-1.64-.82-3.65-1.24-5.98-1.24-2.64,0-4.82.55-6.48,1.65-1.88,1.24-2.87,3.07-2.87,5.3s1.03,3.87,2.97,4.93c.63.35,1.95.95,5.96,1.89l7.26,1.71c2.91.68,5.08,1.58,6.45,2.66,2.02,1.6,3,3.89,3,7.02s-1.22,5.88-3.74,8.03c-2.57,2.2-6.34,3.31-11.2,3.31Z"/>
    <polygon class="cls-1" points="72.25 68.79 72.25 32.44 59.81 32.44 59.81 28.78 89.68 28.78 89.68 32.44 77.29 32.44 77.29 68.79 72.25 68.79"/>
    <path class="cls-1" d="M117.28,68.79c-6.5,0-10.75-1.96-12.98-5.99-1.2-2.22-1.82-5.49-1.82-9.68v-24.34h5.12v24.32c0,3.24.39,5.61,1.2,7.23.89,2.05,3.13,4.6,8.47,4.6s7.55-2.54,8.48-4.68c.77-1.54,1.16-3.9,1.16-7.14v-24.32h5.12v24.34c0,4.2-.61,7.46-1.83,9.7-2.21,4.01-6.44,5.97-12.94,5.97Z"/>
    <path class="cls-1" d="M144.85,68.79V28.78h16.02c2.33.04,4.29.32,5.81.85,2.54.88,4.55,2.46,6.13,4.83,1.3,1.96,2.2,4.12,2.68,6.41.5,2.4.75,4.7.75,6.86,0,5.47-1.04,10.14-3.09,13.87-2.67,4.84-6.69,7.2-12.28,7.2h-16.02ZM149.58,64.87h9.82c4.84,0,8.39-2.61,10.27-7.55.96-2.53,1.44-5.55,1.44-8.98,0-4.8-.72-8.44-2.21-11.13-1.67-3-4.86-4.52-9.5-4.52h-9.82v32.18Z"/>
    <rect class="cls-1" x="188.94" y="28.78" width="4.93" height="40.01"/>
    <path class="cls-1" d="M224.81,68.86c-5.38,0-9.5-1.44-12.25-4.28-3.85-3.63-5.77-8.93-5.77-15.8s1.92-12.3,5.69-15.72c2.84-2.92,6.96-4.36,12.34-4.36s9.5,1.44,12.25,4.28c3.84,3.5,5.75,8.79,5.75,15.8s-1.92,12.17-5.69,15.75c-2.81,2.89-6.93,4.33-12.31,4.33ZM224.81,32.37c-3.99,0-7.23,1.51-9.63,4.47-2.3,2.85-3.47,6.87-3.47,11.94s1.17,9.09,3.47,11.94c2.4,2.97,5.64,4.47,9.63,4.47s7.23-1.51,9.6-4.48c2.27-2.85,3.42-6.86,3.42-11.93s-1.15-9.05-3.42-11.91c-2.37-2.99-5.6-4.5-9.6-4.5Z"/>
  </g>
  <g class="cls-6">
    <path class="cls-3" d="M158.86,94.88l4.04-3.31c1.34,0,2.86.16,4.55.47l3.03,2.84,2.02-1.89,2.02.95-2.53,1.89,4.55,4.26,4.04-3.79c4.04,1.89,7.58,4.26,10.61,7.1,3.03,3.16,5.56,6.63,7.58,10.41l-4.04,3.78,4.55,3.79,2.53-1.89.51,1.89-1.52,1.42,2.53,2.84c.67,1.58,1.01,3.16,1.01,4.73l-3.54,3.31,4.04,3.79-.51,3.31-3.54,3.79,2.53,2.36-.5,2.37-3.54-3.31-4.55,3.78,4.55,4.26,3.03-2.84c-.34,1.89-1.18,3.79-2.53,5.68l-.51-.47-4.55,4.26,1.52,1.42-1.01,1.42-1.52-1.42-4.55,3.79,2.02,2.37-1.01.95-2.53-1.89-4.04,3.79,1.52,1.89-1.52.95-1.52-1.42-4.04,4.26c-1.35.63-3.03,1.26-5.05,1.89l2.02-1.89-4.55-4.26-4.04,4.26,2.53,2.84-2.02.47-2.02-1.89-2.53,2.37h-3.03l4.04-3.79-4.55-4.26-4.04,4.26,4.04,3.79h-3.03l-2.53-2.37-2.02,1.89-2.02-.47,2.53-2.84-4.04-4.26-4.55,4.26,2.02,1.89c-2.02-.31-3.71-.95-5.05-1.89h.51l-4.55-4.26-1.52,1.42-1.52-.95,1.52-1.89-4.04-3.79-2.53,1.89-1.52-.95,2.53-2.37-4.55-3.79-1.52,1.42-1.52-1.42,1.52-1.42-4.04-4.26-.5.47c-1.01-1.89-1.86-3.79-2.53-5.68l3.03,2.84,4.04-4.26-4.04-3.78-3.54,3.31-.51-2.37,2.53-2.36-3.54-3.79-.51-3.31,4.04-3.79-3.54-3.31c0-1.57.17-3.15.5-4.73l3.03-2.84-1.52-1.42.51-1.89,2.53,1.89,4.04-3.79-3.54-3.78c2.02-4.42,4.55-7.88,7.58-10.41,2.69-2.84,6.23-5.21,10.61-7.1l4.04,3.79,4.55-4.26-2.53-1.89,2.02-.95,2.02,1.89,3.03-2.84c1.68-.31,3.2-.47,4.55-.47l3.54,3.31ZM114.39,128.48l4.55,3.79,4.04-3.79-4.04-4.26-4.55,4.26ZM114.39,138.89l4.55,4.26,4.04-4.26-4.04-3.79-4.55,3.79ZM120.45,122.8l4.04,4.26,4.55-4.26-4.55-3.79-4.04,3.79ZM120.45,133.68l4.04,4.26,4.55-4.26-4.55-4.26-4.04,4.26ZM120.45,144.57l4.04,3.78,4.55-3.78-4.55-4.26-4.04,4.26ZM120.45,154.98l4.04,4.26,4.55-4.26-4.55-3.79-4.04,3.79ZM120.96,112.39l3.54,3.79,4.55-3.79-4.55-4.26-3.54,4.26ZM126.01,106.71l4.55,4.26,4.04-4.26-4.04-3.78-4.55,3.78ZM126.01,117.59l4.55,3.79,4.04-3.79-4.04-4.26-4.55,4.26ZM126.01,128.48l4.55,3.79,4.04-3.79-4.04-4.26-4.55,4.26ZM126.01,138.89l4.55,4.26,4.04-4.26-4.04-3.79-4.55,3.79ZM126.01,149.77l4.55,4.26,4.04-4.26-4.04-3.78-4.55,3.78ZM126.01,160.65l4.55,3.79,4.04-3.79-4.04-4.26-4.55,4.26ZM131.57,101.51l4.55,3.78,4.55-3.78-4.55-3.79-4.55,3.79ZM158.86,108.13l-2.02,2.37c-1.69.32-3.37.79-5.05,1.42l-4.04-3.79-4.55,4.26,3.54,2.84-1.52,1.42-3.54-3.31-4.04,4.26,4.04,3.79,2.02-1.42c-.68,1.26-1.35,2.68-2.02,4.26l-4.04,4.26,2.53,2.37v2.37l-4.04-3.79-4.55,4.26,4.55,4.26,3.54-3.79v2.84l-2.02,1.89,2.53,2.84c.33,1.26.67,2.68,1.01,4.26l-3.54,3.78,4.04,4.26,2.02-1.89,1.01,1.89-1.52.95,4.55,4.26,1.01-.95,1.52.95-1.01,1.42,4.04,3.79,3.54-3.31c1.68.32,3.2.32,4.55,0l3.54,3.31,4.04-3.79-1.01-1.42,1.52-.95,1.01.95,4.55-4.26-1.52-.95,1.01-1.89,2.02,1.89,4.04-4.26-3.54-3.31c.33-1.26.67-2.84,1.01-4.73l2.53-2.84-2.02-1.89-.51-2.84,4.04,3.79,4.04-4.26-4.04-4.26-4.04,3.79v-2.37l2.53-2.37-4.04-4.26c-.68-1.57-1.35-2.99-2.02-4.26l2.02,1.42,4.04-3.79-4.04-4.26-3.54,3.31-1.52-1.42,3.54-2.84-4.55-4.26-4.04,3.79c-1.69-.63-3.37-1.1-5.05-1.42l-2.53-2.37ZM131.57,112.39l4.55,3.79,4.55-3.79-4.55-4.26-4.55,4.26ZM131.57,122.8l4.55,4.26,4.55-4.26-4.55-3.79-4.55,3.79ZM131.57,144.57l4.55,3.78,4.55-3.78-4.55-4.26-4.55,4.26ZM131.57,154.98l4.55,4.26,4.55-4.26-4.55-3.79-4.55,3.79ZM131.57,165.86l4.55,4.26,4.55-4.26-4.55-3.79-4.55,3.79ZM137.63,106.71l4.04,4.26,4.55-4.26-4.55-3.78-4.04,3.78ZM137.63,160.65l4.04,3.79,4.55-3.79-4.55-4.26-4.04,4.26ZM137.63,171.07l4.04,4.26,4.55-4.26-4.55-3.79-4.04,3.79ZM143.19,101.51l4.55,3.78,4.04-3.78-4.04-4.26-4.55,4.26ZM143.19,165.86l4.55,4.26,4.04-4.26-4.04-3.79-4.55,3.79ZM149.26,95.83l4.04,4.26,4.55-4.26-4.55-3.79-4.04,3.79ZM149.26,106.71l4.04,4.26,4.55-4.26-4.55-3.78-4.04,3.78ZM149.26,171.07l4.04,4.26,4.55-4.26-4.55-3.79-4.04,3.79ZM154.81,101.51l4.04,3.78,4.55-3.78-4.55-4.26-4.04,4.26ZM154.81,165.86l4.04,4.26,4.55-4.26-4.55-3.79-4.04,3.79ZM160.37,95.83l4.55,4.26,4.04-4.26-4.04-3.79-4.55,3.79ZM160.37,106.71l4.55,4.26,4.04-4.26-4.04-3.78-4.55,3.78ZM160.37,171.07l4.55,4.26,4.04-4.26-4.04-3.79-4.55,3.79ZM166.44,101.51l4.04,3.78,4.55-3.78-4.55-4.26-4.04,4.26ZM166.44,165.86l4.04,4.26,4.55-4.26-4.55-3.79-4.04,3.79ZM171.99,106.71l4.55,4.26,4.04-4.26-4.04-3.78-4.55,3.78ZM171.99,160.65l4.55,3.79,4.04-3.79-4.04-4.26-4.55,4.26ZM171.99,171.07l4.55,4.26,4.04-4.26-4.04-3.79-4.55,3.79ZM177.55,101.51l4.55,3.78,4.04-3.78-4.55-3.79-4.04,3.79ZM177.55,112.39l4.55,3.79,4.04-3.79-4.04-4.26-4.55,4.26ZM177.55,122.8l4.55,4.26,4.04-4.26-4.04-3.79-4.55,3.79ZM177.55,154.98l4.55,4.26,4.04-4.26-4.04-3.79-4.55,3.79ZM177.55,165.86l4.55,4.26,4.04-4.26-4.04-3.79-4.55,3.79ZM178.06,144.57l4.04,3.78,4.04-3.78-4.04-4.26-4.04,4.26ZM183.62,106.71l4.04,4.26,4.55-4.26-4.55-3.78-4.04,3.78ZM183.62,117.59l4.04,3.79,4.55-3.79-4.55-4.26-4.04,4.26ZM183.62,128.48l4.04,3.79,4.55-3.79-4.55-4.26-4.04,4.26ZM183.62,138.89l4.04,4.26,4.55-4.26-4.55-3.79-4.04,3.79ZM183.62,149.77l4.04,4.26,4.55-4.26-4.55-3.78-4.04,3.78ZM183.62,160.65l4.04,3.79,4.55-3.79-4.55-4.26-4.04,4.26ZM189.17,112.39l4.55,3.79,3.54-3.79-3.54-4.26-4.55,4.26ZM189.17,122.8l4.55,4.26,4.04-4.26-4.04-3.79-4.55,3.79ZM189.17,133.68l4.55,4.26,4.04-4.26-4.04-4.26-4.55,4.26ZM189.17,144.57l4.55,3.78,4.04-3.78-4.04-4.26-4.55,4.26ZM189.17,154.98l4.55,4.26,4.04-4.26-4.04-3.79-4.55,3.79ZM194.73,128.48l4.55,3.79,4.04-3.79-4.04-4.26-4.55,4.26ZM194.73,138.89l4.55,4.26,4.04-4.26-4.04-3.79-4.55,3.79Z"/>
    <path class="cls-2" d="M197.04,114.9l4.02-3.3c1.34,0,2.84.16,4.53.47l3.02,2.83,2.01-1.88,2.01.94-2.51,1.88,4.53,4.24,4.02-3.77c4.02,1.88,7.54,4.24,10.56,7.06,3.02,3.14,5.53,6.59,7.54,10.36l-4.02,3.77,4.53,3.77,2.51-1.88.5,1.88-1.51,1.41,2.51,2.83c.67,1.57,1.01,3.14,1.01,4.71l-3.52,3.3,4.02,3.77-.5,3.3-3.52,3.77,2.51,2.35-.5,2.36-3.52-3.3-4.53,3.77,4.53,4.24,3.02-2.83c-.34,1.88-1.18,3.77-2.51,5.65l-.5-.47-4.53,4.24,1.51,1.41-1.01,1.41-1.51-1.41-4.53,3.77,2.01,2.36-1.01.94-2.51-1.88-4.02,3.77,1.51,1.88-1.51.94-1.51-1.41-4.02,4.24c-1.34.63-3.02,1.26-5.03,1.88l2.01-1.88-4.53-4.24-4.02,4.24,2.51,2.83-2.01.47-2.01-1.88-2.51,2.36h-3.02l4.02-3.77-4.53-4.24-4.02,4.24,4.02,3.77h-3.02l-2.51-2.36-2.01,1.88-2.01-.47,2.51-2.83-4.02-4.24-4.53,4.24,2.01,1.88c-2.01-.31-3.69-.94-5.03-1.88h.5l-4.53-4.24-1.51,1.41-1.51-.94,1.51-1.88-4.02-3.77-2.51,1.88-1.51-.94,2.51-2.36-4.53-3.77-1.51,1.41-1.51-1.41,1.51-1.41-4.02-4.24-.5.47c-1.01-1.88-1.85-3.77-2.51-5.65l3.02,2.83,4.02-4.24-4.02-3.77-3.52,3.3-.5-2.36,2.51-2.35-3.52-3.77-.5-3.3,4.02-3.77-3.52-3.3c0-1.57.16-3.13.5-4.71l3.02-2.83-1.51-1.41.5-1.88,2.51,1.88,4.02-3.77-3.52-3.77c2.01-4.39,4.53-7.84,7.54-10.36,2.68-2.83,6.2-5.18,10.56-7.06l4.02,3.77,4.53-4.24-2.51-1.88,2.01-.94,2.01,1.88,3.02-2.83c1.67-.31,3.18-.47,4.53-.47l3.52,3.3ZM152.79,148.33l4.53,3.77,4.02-3.77-4.02-4.24-4.53,4.24ZM152.79,158.7l4.53,4.24,4.02-4.24-4.02-3.77-4.53,3.77ZM158.82,142.68l4.02,4.24,4.53-4.24-4.53-3.77-4.02,3.77ZM158.82,153.52l4.02,4.24,4.53-4.24-4.53-4.24-4.02,4.24ZM158.82,164.35l4.02,3.77,4.53-3.77-4.53-4.24-4.02,4.24ZM158.82,174.71l4.02,4.24,4.53-4.24-4.53-3.77-4.02,3.77ZM159.33,132.32l3.52,3.77,4.53-3.77-4.53-4.24-3.52,4.24ZM164.35,126.67l4.53,4.24,4.02-4.24-4.02-3.77-4.53,3.77ZM164.35,137.5l4.53,3.77,4.02-3.77-4.02-4.24-4.53,4.24ZM164.35,148.33l4.53,3.77,4.02-3.77-4.02-4.24-4.53,4.24ZM164.35,158.7l4.53,4.24,4.02-4.24-4.02-3.77-4.53,3.77ZM164.35,169.53l4.53,4.24,4.02-4.24-4.02-3.77-4.53,3.77ZM164.35,180.36l4.53,3.77,4.02-3.77-4.02-4.24-4.53,4.24ZM169.89,121.49l4.53,3.77,4.53-3.77-4.53-3.77-4.53,3.77ZM197.04,128.08l-2.01,2.36c-1.68.32-3.36.79-5.03,1.41l-4.02-3.77-4.53,4.24,3.52,2.83-1.51,1.41-3.52-3.3-4.02,4.24,4.02,3.77,2.01-1.41c-.68,1.26-1.34,2.67-2.01,4.24l-4.02,4.24,2.51,2.36v2.36l-4.02-3.77-4.53,4.24,4.53,4.24,3.52-3.77v2.83l-2.01,1.88,2.51,2.83c.33,1.26.67,2.67,1.01,4.24l-3.52,3.77,4.02,4.24,2.01-1.88,1.01,1.88-1.51.94,4.53,4.24,1.01-.94,1.51.94-1.01,1.41,4.02,3.77,3.52-3.3c1.67.32,3.18.32,4.53,0l3.52,3.3,4.02-3.77-1.01-1.41,1.51-.94,1.01.94,4.53-4.24-1.51-.94,1.01-1.88,2.01,1.88,4.02-4.24-3.52-3.3c.33-1.25.67-2.83,1.01-4.71l2.51-2.83-2.01-1.88-.5-2.83,4.02,3.77,4.02-4.24-4.02-4.24-4.02,3.77v-2.36l2.51-2.36-4.02-4.24c-.68-1.57-1.34-2.98-2.01-4.24l2.01,1.41,4.02-3.77-4.02-4.24-3.52,3.3-1.51-1.41,3.52-2.83-4.53-4.24-4.02,3.77c-1.68-.62-3.36-1.1-5.03-1.41l-2.51-2.36ZM169.89,132.32l4.53,3.77,4.53-3.77-4.53-4.24-4.53,4.24ZM169.89,142.68l4.53,4.24,4.53-4.24-4.53-3.77-4.53,3.77ZM169.89,164.35l4.53,3.77,4.53-3.77-4.53-4.24-4.53,4.24ZM169.89,174.71l4.53,4.24,4.53-4.24-4.53-3.77-4.53,3.77ZM169.89,185.54l4.53,4.24,4.53-4.24-4.53-3.77-4.53,3.77ZM175.92,126.67l4.02,4.24,4.53-4.24-4.53-3.77-4.02,3.77ZM175.92,180.36l4.02,3.77,4.53-3.77-4.53-4.24-4.02,4.24ZM175.92,190.72l4.02,4.24,4.53-4.24-4.53-3.77-4.02,3.77ZM181.45,121.49l4.53,3.77,4.02-3.77-4.02-4.24-4.53,4.24ZM181.45,185.54l4.53,4.24,4.02-4.24-4.02-3.77-4.53,3.77ZM187.49,115.84l4.02,4.24,4.53-4.24-4.53-3.77-4.02,3.77ZM187.49,126.67l4.02,4.24,4.53-4.24-4.53-3.77-4.02,3.77ZM187.49,190.72l4.02,4.24,4.53-4.24-4.53-3.77-4.02,3.77ZM193.02,121.49l4.02,3.77,4.53-3.77-4.53-4.24-4.02,4.24ZM193.02,185.54l4.02,4.24,4.53-4.24-4.53-3.77-4.02,3.77ZM198.55,115.84l4.53,4.24,4.02-4.24-4.02-3.77-4.53,3.77ZM198.55,126.67l4.53,4.24,4.02-4.24-4.02-3.77-4.53,3.77ZM198.55,190.72l4.53,4.24,4.02-4.24-4.02-3.77-4.53,3.77ZM204.59,121.49l4.02,3.77,4.53-3.77-4.53-4.24-4.02,4.24ZM204.59,185.54l4.02,4.24,4.53-4.24-4.53-3.77-4.02,3.77ZM210.12,126.67l4.53,4.24,4.02-4.24-4.02-3.77-4.53,3.77ZM210.12,180.36l4.53,3.77,4.02-3.77-4.02-4.24-4.53,4.24ZM210.12,190.72l4.53,4.24,4.02-4.24-4.02-3.77-4.53,3.77ZM215.65,121.49l4.53,3.77,4.02-3.77-4.53-3.77-4.02,3.77ZM215.65,132.32l4.53,3.77,4.02-3.77-4.02-4.24-4.53,4.24ZM215.65,142.68l4.53,4.24,4.02-4.24-4.02-3.77-4.53,3.77ZM215.65,174.71l4.53,4.24,4.02-4.24-4.02-3.77-4.53,3.77ZM215.65,185.54l4.53,4.24,4.02-4.24-4.02-3.77-4.53,3.77ZM216.15,164.35l4.02,3.77,4.02-3.77-4.02-4.24-4.02,4.24ZM221.68,126.67l4.02,4.24,4.53-4.24-4.53-3.77-4.02,3.77ZM221.68,137.5l4.02,3.77,4.53-3.77-4.53-4.24-4.02,4.24ZM221.68,148.33l4.02,3.77,4.53-3.77-4.53-4.24-4.02,4.24ZM221.68,158.7l4.02,4.24,4.53-4.24-4.53-3.77-4.02,3.77ZM221.68,169.53l4.02,4.24,4.53-4.24-4.53-3.77-4.02,3.77ZM221.68,180.36l4.02,3.77,4.53-3.77-4.53-4.24-4.02,4.24ZM227.21,132.32l4.53,3.77,3.52-3.77-3.52-4.24-4.53,4.24ZM227.21,142.68l4.53,4.24,4.02-4.24-4.02-3.77-4.53,3.77ZM227.21,153.52l4.53,4.24,4.02-4.24-4.02-4.24-4.53,4.24ZM227.21,164.35l4.53,3.77,4.02-3.77-4.02-4.24-4.53,4.24ZM227.21,174.71l4.53,4.24,4.02-4.24-4.02-3.77-4.53,3.77ZM232.75,148.33l4.53,3.77,4.02-3.77-4.02-4.24-4.53,4.24ZM232.75,158.7l4.53,4.24,4.02-4.24-4.02-3.77-4.53,3.77Z"/>
    <path class="cls-5" d="M14.32,91.98h80.8v18.75h-57.27v24.54h57.27v18.53h-57.27v44.73H14.32v-106.55Z"/>
    <path class="cls-5" d="M376.84,91.53h24.06v63.56c0,7.11.92,12.3,2.76,15.57,2.86,5.8,9.09,8.7,18.69,8.7s15.75-2.9,18.61-8.7c1.84-3.27,2.76-8.46,2.76-15.57v-63.56h24.06v63.61c0,11-1.87,19.57-5.6,25.7-6.96,11.23-20.23,16.85-39.83,16.85s-32.9-5.62-39.91-16.85c-3.74-6.13-5.6-14.7-5.6-25.7v-63.61Z"/>
    <path class="cls-5" d="M508.65,164.11c.73,4.59,2.17,8.02,4.32,10.29,3.93,4.13,10.65,6.2,20.17,6.2,5.7,0,10.33-.54,13.89-1.63,6.75-2.09,10.13-5.97,10.13-11.65,0-3.32-1.65-5.88-4.96-7.7-3.31-1.77-8.55-3.34-15.73-4.7l-12.27-2.38c-12.06-2.36-20.34-4.93-24.85-7.7-7.64-4.63-11.45-11.88-11.45-21.73,0-8.99,3.73-16.46,11.21-22.41,7.47-5.95,18.45-8.92,32.92-8.92,12.09,0,22.4,2.81,30.93,8.41,8.54,5.61,13.01,13.75,13.43,24.42h-22.76c-.42-6.04-3.47-10.33-9.14-12.87-3.79-1.68-8.49-2.52-14.11-2.52-6.25,0-11.24,1.09-14.97,3.27-3.73,2.18-5.6,5.22-5.6,9.13,0,3.59,1.84,6.27,5.52,8.04,2.36,1.18,7.38,2.57,15.06,4.16l19.89,4.16c8.71,1.82,15.25,4.25,19.6,7.29,6.75,4.72,10.13,11.56,10.13,20.5s-4,16.79-12.01,22.85c-8,6.06-19.31,9.1-33.92,9.1s-26.65-2.98-35.2-8.96c-8.55-5.97-12.82-14.18-12.82-24.62h22.6Z"/>
    <path class="cls-5" d="M273.52,104.19c9.13-8.34,20.74-12.5,34.83-12.5,18.86,0,32.65,5.59,41.37,16.76,4.82,6.27,7.4,12.57,7.76,18.89h-23.68c-1.51-4.85-3.44-8.52-5.8-10.99-4.22-4.4-10.47-6.6-18.75-6.6s-15.09,3.1-19.96,9.31c-4.87,6.21-7.31,14.99-7.31,26.35s2.57,19.87,7.71,25.52c5.14,5.66,11.67,8.48,19.59,8.48s14.31-2.43,18.57-7.28c2.36-2.61,4.31-6.53,5.87-11.75h23.52c-2.03,11.04-7.21,20.01-15.55,26.93-8.34,6.92-19.03,10.37-32.06,10.37-16.12,0-28.8-4.67-38.03-14.01-9.23-9.39-13.84-22.26-13.84-38.61,0-17.68,5.25-31.3,15.74-40.88Z"/>
    <path class="cls-5" d="M32.06,68.79c-5,0-8.95-1.11-11.73-3.3-2.23-1.75-3.5-4.02-3.87-6.88h4.79c.37,1.49.92,2.67,1.69,3.59,1.79,2.13,4.75,3.21,8.78,3.21,2.31,0,4.17-.25,5.67-.77,4.08-1.43,4.94-4.34,4.94-6.54,0-2.01-.93-3.65-2.68-4.73-1.41-.85-3.48-1.56-6.33-2.17l-4.47-.98c-5.17-1.14-7.44-2.2-8.43-2.89-2.29-1.57-3.4-4-3.4-7.45,0-3.19,1.14-5.77,3.49-7.88,2.37-2.13,6.01-3.21,10.8-3.21,3.99,0,7.43,1.05,10.21,3.11,2.21,1.64,3.52,3.86,3.99,6.76h-4.73c-.56-2.28-1.95-4.03-4.09-5.11-1.64-.82-3.65-1.24-5.98-1.24-2.64,0-4.82.55-6.48,1.65-1.88,1.24-2.87,3.07-2.87,5.3s1.03,3.87,2.97,4.93c.63.35,1.95.95,5.96,1.89l7.26,1.71c2.91.68,5.08,1.58,6.45,2.66,2.02,1.6,3,3.89,3,7.02s-1.22,5.88-3.74,8.03c-2.57,2.2-6.34,3.31-11.2,3.31Z"/>
    <polygon class="cls-5" points="72.25 68.79 72.25 32.44 59.81 32.44 59.81 28.78 89.68 28.78 89.68 32.44 77.29 32.44 77.29 68.79 72.25 68.79"/>
    <path class="cls-5" d="M117.28,68.79c-6.5,0-10.75-1.96-12.98-5.99-1.2-2.22-1.82-5.49-1.82-9.68v-24.34h5.12v24.32c0,3.24.39,5.61,1.2,7.23.89,2.05,3.13,4.6,8.47,4.6s7.55-2.54,8.48-4.68c.77-1.54,1.16-3.9,1.16-7.14v-24.32h5.12v24.34c0,4.2-.61,7.46-1.83,9.7-2.21,4.01-6.44,5.97-12.94,5.97Z"/>
    <path class="cls-5" d="M144.85,68.79V28.78h16.02c2.33.04,4.29.32,5.81.85,2.54.88,4.55,2.46,6.13,4.83,1.3,1.96,2.2,4.12,2.68,6.41.5,2.4.75,4.7.75,6.86,0,5.47-1.04,10.14-3.09,13.87-2.67,4.84-6.69,7.2-12.28,7.2h-16.02ZM149.58,64.87h9.82c4.84,0,8.39-2.61,10.27-7.55.96-2.53,1.44-5.55,1.44-8.98,0-4.8-.72-8.44-2.21-11.13-1.67-3-4.86-4.52-9.5-4.52h-9.82v32.18Z"/>
    <rect class="cls-5" x="188.94" y="28.78" width="4.93" height="40.01"/>
    <path class="cls-5" d="M224.81,68.86c-5.38,0-9.5-1.44-12.25-4.28-3.85-3.63-5.77-8.93-5.77-15.8s1.92-12.3,5.69-15.72c2.84-2.92,6.96-4.36,12.34-4.36s9.5,1.44,12.25,4.28c3.84,3.5,5.75,8.79,5.75,15.8s-1.92,12.17-5.69,15.75c-2.81,2.89-6.93,4.33-12.31,4.33ZM224.81,32.37c-3.99,0-7.23,1.51-9.63,4.47-2.3,2.85-3.47,6.87-3.47,11.94s1.17,9.09,3.47,11.94c2.4,2.97,5.64,4.47,9.63,4.47s7.23-1.51,9.6-4.48c2.27-2.85,3.42-6.86,3.42-11.93s-1.15-9.05-3.42-11.91c-2.37-2.99-5.6-4.5-9.6-4.5Z"/>
  </g>
</svg>